<svg xmlns="http://www.w3.org/2000/svg" xmlns:xlink="http://www.w3.org/1999/xlink" fill="none" version="1.1" width="173" height="30" viewBox="0 0 173 30"><defs><linearGradient x1="173" y1="15.5" x2="42" y2="15.5" gradientUnits="userSpaceOnUse" id="master_svg0_1_9786"><stop offset="0%" stop-color="#6A3BFF" stop-opacity="1"/><stop offset="99.99999403953552%" stop-color="#3459FF" stop-opacity="1"/></linearGradient></defs><g><g><path d="M46.5999999,24L50.1799994,24L50.1799994,12.08L54.219999,12.08L54.219999,9.1000004L42.57999998,9.1000004L42.57999998,12.08L46.5999999,12.08L46.5999999,24ZM59.4,24.280001C62.279999000000004,24.280001,64.959999,22.08,64.959999,18.299999C64.959999,14.54,62.279999000000004,12.34,59.4,12.34C56.5,12.34,53.82,14.54,53.82,18.299999C53.82,22.08,56.5,24.280001,59.4,24.280001ZM59.4,21.4C58.059999000000005,21.4,57.459998999999996,20.200001,57.459998999999996,18.299999C57.459998999999996,16.42,58.059999000000005,15.22,59.4,15.22C60.719999,15.22,61.32,16.42,61.32,18.299999C61.32,20.200001,60.719999,21.4,59.4,21.4ZM67.19999899999999,24L70.69999899999999,24L70.69999899999999,21.18L72.019999,19.68L74.47999999999999,24L78.339996,24L74.099998,17.360001L78.05999800000001,12.62L74.159996,12.62L70.799999,16.9L70.69999899999999,16.9L70.69999899999999,8.0200005L67.19999899999999,8.0200005L67.19999899999999,24ZM84.35999699999999,24.280001C85.679996,24.280001,87.239998,23.82,88.41999799999999,22.98L87.239998,20.84C86.41999799999999,21.32,85.659996,21.559999,84.839996,21.559999C83.399998,21.559999,82.32,20.92,82,19.360001L88.68,19.360001C88.759998,19.08,88.839996,18.459999,88.839996,17.82C88.839996,14.72,87.239998,12.34,83.95999900000001,12.34C81.219997,12.34,78.55999800000001,14.62,78.55999800000001,18.299999C78.55999800000001,22.08,81.079998,24.280001,84.35999699999999,24.280001ZM81.939999,17.02C82.18,15.68,83.039997,15.06,84.01999699999999,15.06C85.32,15.06,85.82,15.900001,85.82,17.02L81.939999,17.02ZM91.119999,24L94.68,24L94.68,16.4C95.360001,15.74,95.84,15.38,96.639999,15.38C97.54000099999999,15.38,97.95999900000001,15.820001,97.95999900000001,17.4L97.95999900000001,24L101.52000000000001,24L101.52000000000001,16.96C101.52000000000001,14.12,100.45999900000001,12.34,97.97999999999999,12.34C96.439999,12.34,95.279999,13.12,94.34,14.04L94.279999,14.04L94.02000000000001,12.62L91.119999,12.62L91.119999,24ZM110.699997,24.280001C114.760002,24.280001,117.519997,21.360001,117.519997,16.48C117.519997,11.62,114.760002,8.8400002,110.699997,8.8400002C106.639999,8.8400002,103.880001,11.6,103.880001,16.48C103.880001,21.360001,106.639999,24.280001,110.699997,24.280001ZM110.699997,21.200001C108.739998,21.200001,107.540001,19.360001,107.540001,16.48C107.540001,13.6,108.739998,11.900001,110.699997,11.900001C112.660004,11.900001,113.879997,13.6,113.879997,16.48C113.879997,19.360001,112.660004,21.200001,110.699997,21.200001ZM120.279999,24L123.860001,24L123.860001,19.059999L125.599998,19.059999C128.759995,19.059999,131.479996,17.5,131.479996,13.96C131.479996,10.2800007,128.779999,9.1000004,125.519997,9.1000004L120.279999,9.1000004L120.279999,24ZM123.860001,16.240000000000002L123.860001,11.940001L125.32,11.940001C127.039993,11.940001,128,12.46,128,13.96C128,15.42,127.159996,16.240000000000002,125.419998,16.240000000000002L123.860001,16.240000000000002ZM138.399994,24.280001C142,24.280001,144.07999,22.1,144.07999,19.619999C144.07999,17.52,142.98000000000002,16.280001,141.139999,15.54L139.279999,14.8C137.95999899999998,14.280001,137.04000100000002,13.96,137.04000100000002,13.12C137.04000100000002,12.34,137.699997,11.900001,138.799995,11.900001C139.95999899999998,11.900001,140.879997,12.3,141.860001,13.04L143.64,10.8000002C142.34,9.5,140.519997,8.8400002,138.799995,8.8400002C135.639999,8.8400002,133.399994,10.8400002,133.399994,13.34C133.399994,15.5,134.860001,16.8,136.41999800000002,17.42L138.32,18.220001C139.599998,18.76,140.41999800000002,19.040001,140.41999800000002,19.9C140.41999800000002,20.700001,139.799995,21.200001,138.479996,21.200001C137.299995,21.200001,135.91999800000002,20.58,134.879997,19.68L132.83999599999999,22.139999C134.379997,23.559999,136.45999899999998,24.280001,138.399994,24.280001ZM148.35998999999998,24.280001C149.57999,24.280001,150.48000000000002,23.299999,150.48000000000002,22.059999C150.48000000000002,20.82,149.57999,19.860001,148.35998999999998,19.860001C147.12,19.860001,146.24,20.82,146.24,22.059999C146.24,23.299999,147.12,24.280001,148.35998999999998,24.280001ZM151.69999,24L155.34,24L156.19999,20.58L160.59999,20.58L161.45999,24L165.21999,24L160.59999,9.1000004L156.31999000000002,9.1000004L151.69999,24ZM156.87999000000002,17.82L157.19999,16.559998999999998C157.57999,15.08,157.98000000000002,13.34,158.34,11.780001L158.41998999999998,11.780001C158.81999000000002,13.3,159.19999,15.08,159.59999,16.559998999999998L159.91998999999998,17.82L156.87999000000002,17.82ZM166.77999,24L170.35999,24L170.35999,9.1000004L166.77999,9.1000004L166.77999,24Z" fill="url(#master_svg0_1_9786)" fill-opacity="1"/></g><g><g></g><g><path d="M24.4460735,5.2585444Q24.4840565,5.3611779,24.5614395,5.438561Q24.638822599999997,5.5159445,24.741456,5.5539269L28.732920999999997,7.0310812Q28.750754,7.0376806,28.768034999999998,7.0456157Q28.785315,7.0535502,28.801941,7.0627742Q28.818569,7.0719986,28.834448000000002,7.0824585Q28.850326000000003,7.0929193,28.865363000000002,7.1045551Q28.880402,7.1161919,28.894513,7.1289368Q28.908625,7.1416817,28.921727,7.1554613Q28.934829999999998,7.1692414,28.946848,7.1839762Q28.958866,7.1987114,28.96973,7.2143159Q28.980596,7.2299213,28.990244,7.2463064Q28.999890999999998,7.2626915,29.008266,7.2797618Q29.016643000000002,7.296833,29.023697,7.3144903Q29.030752,7.3321476,29.036445,7.3502893Q29.042139,7.3684316,29.046438000000002,7.3869538Q29.050736999999998,7.4054761,29.053617,7.4242711Q29.056497999999998,7.4430666,29.057941,7.4620261Q29.059385,7.4809856,29.059384,7.5Q29.059385,7.5190148,29.057941,7.5379744Q29.056497999999998,7.5569344,29.053617,7.5757294Q29.050736999999998,7.5945249,29.046436999999997,7.6130471Q29.042139,7.6315694,29.036445,7.6497111Q29.030752,7.6678538,29.023699,7.6855116Q29.016644,7.7031689,29.008268,7.7202396Q28.999893,7.7373104,28.990246,7.7536955Q28.980597,7.7700806,28.969731,7.7856855Q28.958868000000002,7.801291,28.946849,7.8160257Q28.934831000000003,7.830761,28.921727,7.8445401Q28.908625,7.8583198,28.894514,7.8710647Q28.880403,7.8838091,28.865363000000002,7.8954449Q28.850326000000003,7.9070811,28.834447,7.9175415Q28.818569,7.9280024,28.801941,7.9372263Q28.785315,7.9464502,28.768034,7.9543853Q28.750754,7.9623199,28.732920999999997,7.9689193L24.741456,9.4460735Q24.638822599999997,9.4840565,24.5614395,9.5614395Q24.4840565,9.6388226,24.4460735,9.741456L22.9689193,13.732921Q22.9623199,13.750754,22.9543853,13.768035Q22.9464502,13.785315,22.9372258,13.801941Q22.928001899999998,13.818569,22.9175415,13.834448Q22.9070811,13.850326,22.8954449,13.865363Q22.8838091,13.880402,22.8710642,13.894513Q22.8583202,13.908625,22.844540600000002,13.921727Q22.830761,13.93483,22.8160262,13.946848Q22.801291,13.958866,22.7856855,13.96973Q22.7700806,13.980596,22.753695999999998,13.990244Q22.7373104,13.999891,22.7202396,14.008265Q22.7031689,14.016642,22.685511599999998,14.023697Q22.667854300000002,14.030751,22.6497116,14.036444Q22.6315699,14.042137,22.6130476,14.046437Q22.5945253,14.050736,22.5757294,14.053617Q22.5569344,14.056497,22.5379744,14.057941Q22.5190148,14.059384,22.5,14.059384Q22.4809856,14.059384,22.4620266,14.05794Q22.4430666,14.056496,22.4242711,14.053616Q22.4054761,14.050735,22.3869534,14.046437Q22.3684311,14.042137,22.3502889,14.036444Q22.3321471,14.030751,22.3144903,14.023697Q22.296833,14.016643,22.2797618,14.008266Q22.2626915,13.999891,22.2463059,13.990244Q22.2299209,13.980597,22.2143154,13.969731Q22.1987104,13.958868,22.1839757,13.946849Q22.169241,13.934831,22.1554608,13.921727Q22.1416817,13.908625,22.128936799999998,13.894514Q22.1161919,13.880403,22.1045551,13.865363Q22.0929193,13.850326,22.082459,13.834447Q22.0719986,13.818569,22.0627742,13.801941Q22.0535502,13.785315,22.0456157,13.768034Q22.0376806,13.750754,22.0310812,13.732921L20.5539269,9.741457Q20.5159445,9.6388235,20.4385614,9.5614405Q20.3611784,9.4840574,20.258544399999998,9.4460745L16.2670798,7.9689193Q16.2492473,7.9623199,16.2319674,7.9543853Q16.2146876,7.9464502,16.1980602,7.9372258Q16.181433,7.9280019,16.1655542,7.9175415Q16.1496754,7.9070811,16.1346369,7.8954449Q16.1195985,7.8838091,16.1054873,7.8710642Q16.0913761,7.8583202,16.0782735,7.8445406Q16.065171,7.830761,16.0531528,7.8160262Q16.0411346,7.801291,16.0302702,7.7856855Q16.0194058,7.7700806,16.009758,7.753696Q16.0001103,7.7373104,15.9917348,7.7202396Q15.98335934,7.7031689,15.97630447,7.6855116Q15.96924967,7.6678543,15.96355623,7.6497116Q15.95786291,7.6315699,15.95356387,7.6130481Q15.94926482,7.5945253,15.94638491,7.5757303Q15.94350505,7.5569353,15.94206089,7.5379753Q15.94061673,7.5190158,15.94061673,7.500001Q15.94061673,7.4809866,15.942060829999999,7.4620271Q15.94350499,7.4430676,15.94638485,7.4242716Q15.94926482,7.4054766,15.95356387,7.3869543Q15.95786297,7.368432,15.96355629,7.3502898Q15.96924973,7.3321481,15.97630459,7.3144908Q15.9833594,7.296834,15.99173486,7.2797627Q16.0001104,7.2626925,16.0097581,7.2463074Q16.019406,7.2299223,16.0302703,7.2143168Q16.0411347,7.1987123,16.0531529,7.1839776Q16.065171,7.1692424,16.0782735,7.1554623Q16.0913763,7.1416826,16.1054875,7.1289377Q16.1195986,7.1161928,16.134637,7.1045561Q16.1496755,7.0929203,16.1655543,7.0824594Q16.181433,7.0719991,16.1980603,7.0627747Q16.2146876,7.0535507,16.2319674,7.0456161Q16.2492473,7.0376816,16.2670799,7.0310817L20.258544,5.5539269Q20.3611774,5.5159445,20.438561,5.4385614Q20.515944,5.3611784,20.5539265,5.2585444L22.0310812,1.2670801Q22.0376806,1.2492476,22.0456157,1.2319677Q22.0535502,1.2146878,22.0627742,1.1980604Q22.0719986,1.1814332,22.0824585,1.1655544Q22.0929193,1.1496756,22.1045551,1.1346371Q22.1161919,1.1195987,22.128936799999998,1.1054875Q22.1416817,1.0913763,22.1554613,1.0782737Q22.1692414,1.0651711,22.1839762,1.053153Q22.1987114,1.0411348,22.2143159,1.0302705Q22.2299213,1.0194061,22.2463064,1.0097582Q22.2626915,1.0001105,22.2797618,0.99173498Q22.296833,0.98335952,22.3144903,0.97630471Q22.3321476,0.9692499,22.3502893,0.96355647Q22.3684316,0.95786315,22.3869538,0.95356405Q22.4054761,0.949265,22.4242711,0.94638509Q22.4430666,0.94350523,22.4620261,0.94206113Q22.4809856,0.94061697,22.5,0.94061691Q22.5190148,0.94061697,22.5379744,0.94206107Q22.5569344,0.94350523,22.5757294,0.94638509Q22.5945249,0.94926506,22.6130471,0.95356417Q22.6315694,0.95786321,22.6497111,0.96355653Q22.6678538,0.96924996,22.685511599999998,0.97630477Q22.7031689,0.98335963,22.7202396,0.9917351Q22.7373104,1.0001106,22.7536955,1.0097584Q22.7700806,1.0194062,22.7856855,1.0302706Q22.801291,1.041135,22.8160257,1.053153Q22.830761,1.0651712,22.8445401,1.0782738Q22.8583198,1.0913763,22.871064699999998,1.1054876Q22.8838091,1.1195987,22.8954449,1.1346371Q22.9070811,1.1496756,22.9175415,1.1655543Q22.9280024,1.1814332,22.9372263,1.1980604Q22.9464502,1.2146878,22.9543853,1.2319677Q22.9623199,1.2492476,22.9689193,1.2670802L24.4460735,5.2585444Z" fill="#3459FF" fill-opacity="1"/></g><g><path d="M21.705808686950682,22.6831286Q21.736194586950685,22.7652354,21.798101386950684,22.8271418Q21.860008286950684,22.8890486,21.942114786950683,22.9194345L24.861579186950685,23.999864600000002Q24.890153186950684,24.0104389,24.916794186950682,24.0252194Q24.943436186950684,24.0399995,24.967532186950685,24.0586443Q24.991628186950685,24.0772891,25.01262418695068,24.0993686Q25.033618186950683,24.1214476,25.051026186950683,24.146452Q25.068435186950683,24.1714563,25.081855186950683,24.1988087Q25.095275186950683,24.226161,25.104397186950685,24.2552309Q25.113519186950683,24.2843008,25.118134186950684,24.3144169Q25.122749186950685,24.3445325,25.122749186950685,24.375Q25.122749186950685,24.4054675,25.118134186950684,24.4355831Q25.113520186950684,24.4656992,25.104398186950682,24.4947686Q25.095275186950683,24.523839,25.081855186950683,24.5511913Q25.068435186950683,24.5785437,25.051026186950683,24.603548Q25.033618186950683,24.6285524,25.01262418695068,24.6506314Q24.991629186950682,24.6727104,24.967533186950682,24.6913552Q24.943436186950684,24.71,24.916795186950683,24.7247806Q24.890153186950684,24.7395606,24.861579186950685,24.7501349L21.942114786950683,25.8305655Q21.860008286950684,25.8609514,21.798101386950684,25.9228582Q21.736194586950685,25.9847651,21.705808686950682,26.0668716L20.625378086950683,28.986336Q20.614803786950684,29.01491,20.600023286950684,29.041551Q20.585243186950684,29.068193,20.566598386950684,29.092289Q20.547953586950683,29.116385,20.525874586950685,29.137380999999998Q20.503795586950684,29.158375,20.478791186950684,29.175783Q20.453786886950684,29.193192,20.426434486950683,29.206612Q20.399082186950682,29.220032,20.370011786950684,29.229154Q20.340942386950683,29.238276,20.310826786950685,29.242891Q20.280710686950684,29.247506,20.250243186950684,29.247506Q20.219775686950683,29.247506,20.189659586950683,29.242891Q20.159543986950684,29.238277,20.130474086950684,29.229155Q20.101404186950685,29.220032,20.074051886950684,29.206612Q20.046699486950683,29.193192,20.021695186950684,29.175783Q19.996690786950683,29.158375,19.974611786950682,29.137380999999998Q19.952531786950683,29.116386,19.933886986950682,29.09229Q19.915242186950685,29.068193,19.900462586950685,29.041552Q19.885682086950684,29.01491,19.875107786950686,28.986336L18.794677686950685,26.0668716Q18.764291786950682,25.9847651,18.702384986950683,25.9228587Q18.640478586950685,25.860952400000002,18.558371786950683,25.8305659L15.638907186950684,24.750135399999998Q15.610333676950683,24.7395611,15.583691416950684,24.7247806Q15.557049156950683,24.71,15.532952786950684,24.6913552Q15.508856476950683,24.6727104,15.487862046950683,24.6506314Q15.466867626950684,24.6285524,15.449459496950684,24.603548Q15.432051356950684,24.5785437,15.418631196950683,24.5511913Q15.405210966950683,24.523839,15.396088306950684,24.4947686Q15.386965696950684,24.465699700000002,15.382351156950683,24.4355841Q15.377736626950684,24.405468,15.377736626950684,24.3750005Q15.377736626950684,24.344533,15.382351156950683,24.3144169Q15.386965696950684,24.2843013,15.396088306950684,24.2552314Q15.405210916950683,24.226162000000002,15.418631076950684,24.1988096Q15.432051296950684,24.1714573,15.449459436950683,24.1464529Q15.466867566950684,24.1214485,15.487861986950684,24.099369Q15.508856416950684,24.0772896,15.532952786950684,24.0586443Q15.557049156950683,24.04,15.583691476950683,24.0252199Q15.610333676950683,24.0104399,15.638907186950684,23.9998651L18.558371286950685,22.9194345Q18.640478086950683,22.8890486,18.702384486950685,22.8271418Q18.764291286950684,22.7652354,18.794677286950684,22.6831286L19.875107786950686,19.763664Q19.885682086950684,19.73509049,19.900462586950685,19.70844823Q19.915242686950684,19.68180597,19.933887486950685,19.6577096Q19.952532286950685,19.63361329,19.974611786950682,19.61261886Q19.996690786950683,19.59162444,20.021695186950684,19.57421631Q20.046699486950683,19.55680817,20.074052286950682,19.54338801Q20.101404686950683,19.52996778,20.130474086950684,19.52084512Q20.159543986950684,19.51172256,20.189660086950685,19.50710797Q20.219775686950683,19.5024935,20.250243186950684,19.50249344Q20.280710686950684,19.5024935,20.310826286950682,19.50710797Q20.340942386950683,19.51172256,20.370011786950684,19.52084512Q20.399082186950682,19.52996773,20.426434486950683,19.543387889999998Q20.453786886950684,19.55680811,20.478791186950684,19.57421625Q20.503795586950684,19.59162438,20.525874586950685,19.6126188Q20.547953586950683,19.63361323,20.566598386950684,19.6577096Q20.585243186950684,19.68180597,20.600023786950683,19.70844829Q20.614803786950684,19.73509049,20.625378086950683,19.763664L21.705808686950682,22.6831286Z" fill="#3459FF" fill-opacity="1"/></g><g><path d="M11.827539,13.751102460662842Q11.865522,13.853735960662842,11.942905,13.931118960662841Q12.020288,14.008502460662843,12.122922,14.046484960662841L17.482922,16.030105160662842Q17.500755,16.03670456066284,17.518034,16.044639060662842Q17.535315,16.052573660662844,17.551941,16.061798560662844Q17.568569,16.071023460662843,17.584448,16.081483360662844Q17.600327,16.09194326066284,17.615364,16.10357906066284Q17.630404,16.115214860662842,17.644516,16.12795976066284Q17.658627,16.14070466066284,17.67173,16.15448426066284Q17.684834,16.16826396066284,17.69685,16.182999160662842Q17.708868,16.197734360662842,17.719732,16.213339360662843Q17.730598,16.228944260662843,17.740246,16.245329360662843Q17.749893,16.261714460662844,17.758268,16.278785260662843Q17.766644,16.29585596066284,17.773699,16.31351326066284Q17.780754,16.33117056066284,17.786446,16.349312260662842Q17.792141,16.36745496066284,17.79644,16.38597726066284Q17.800739,16.40450046066284,17.803617,16.423295460662843Q17.806499,16.44209056066284,17.807943,16.461049560662843Q17.809387,16.480009560662843,17.809385,16.49902396066284Q17.809387,16.518039260662842,17.807943,16.536999260662842Q17.806499,16.555959260662842,17.803619,16.574753260662842Q17.800739,16.593548260662843,17.79644,16.612070560662843Q17.792141,16.63059186066284,17.786446,16.64873456066284Q17.780754,16.666877260662844,17.773699,16.68453456066284Q17.766644,16.702191860662843,17.758268,16.71926256066284Q17.749893,16.73633336066284,17.740246,16.75271846066284Q17.730598,16.769103560662842,17.719732,16.78470846066284Q17.708868,16.800313460662842,17.69685,16.815048660662843Q17.684834,16.829783960662844,17.67173,16.843563560662844Q17.658627,16.857343160662843,17.644516,16.87008806066284Q17.630404,16.882832060662842,17.615364,16.894467860662843Q17.600327,16.90610456066284,17.584448,16.91656446066284Q17.568569,16.927026260662842,17.551941,16.936250160662844Q17.535315,16.94547416066284,17.518036,16.953408760662843Q17.500755,16.961343260662844,17.482922,16.967942760662844L12.122922,18.951561960662843Q12.020288,18.98954496066284,11.942905,19.06692796066284Q11.865522,19.144310960662843,11.827539,19.246944960662844L9.8439198,24.60694496066284Q9.8373203,24.624777960662843,9.8293858,24.642056960662842Q9.8214512,24.659337960662842,9.8122263,24.67596396066284Q9.8030024,24.692591960662842,9.7925425,24.70847096066284Q9.7820816,24.724349960662842,9.7704449,24.73938696066284Q9.7588091,24.75442696066284,9.7460642,24.76853896066284Q9.7333202,24.78264996066284,9.7195396,24.795752960662842Q9.705761,24.80885696066284,9.6910257,24.820872960662843Q9.6762905,24.83289096066284,9.6606855,24.843754960662842Q9.6450806,24.854620960662842,9.6286955,24.86426896066284Q9.6123104,24.873915960662842,9.5952396,24.88228896066284Q9.5781689,24.89066696066284,9.5605116,24.897721960662842Q9.5428543,24.904776960662844,9.5247116,24.910468960662843Q9.5065689,24.91616196066284,9.4880476,24.92046096066284Q9.4695253,24.924759960662843,9.4507303,24.92763996066284Q9.4319363,24.93052196066284,9.4129753,24.931965960662843Q9.3940163,24.93340796066284,9.375001,24.93340796066284Q9.3559866,24.93340796066284,9.3370266,24.93196396066284Q9.3180676,24.930520960662843,9.2992716,24.927638960662843Q9.2804766,24.92475796066284,9.2619543,24.92046096066284Q9.243432,24.91616196066284,9.2252893,24.910468960662843Q9.2071476,24.904776960662844,9.1894903,24.897721960662842Q9.171833,24.89066696066284,9.1547623,24.88228896066284Q9.1376915,24.873915960662842,9.1213064,24.86426896066284Q9.1049213,24.854620960662842,9.0893164,24.843754960662842Q9.0737114,24.83289096066284,9.0589762,24.820872960662843Q9.044241,24.80885696066284,9.0304613,24.795752960662842Q9.0166817,24.78264996066284,9.0039368,24.76853896066284Q8.9911919,24.75442696066284,8.9795561,24.73938696066284Q8.9679203,24.724349960662842,8.9574604,24.70847096066284Q8.9470005,24.692591960662842,8.9377756,24.67596396066284Q8.9285507,24.659337960662842,8.9206161,24.64205896066284Q8.9126816,24.624777960662843,8.9060822,24.60694496066284L6.922462,19.246945960662842Q6.8844795,19.14431296066284,6.8070965,19.06692996066284Q6.7297134,18.98954596066284,6.6270795,18.95156296066284L1.2670798,16.967942760662844Q1.2492473,16.961343260662844,1.2319674,16.953408760662843Q1.2146876,16.94547416066284,1.1980602,16.936250160662844Q1.181433,16.927026260662842,1.1655542,16.91656636066284Q1.1496754,16.906105560662844,1.1346369,16.89446876066284Q1.1195985,16.882832960662842,1.1054873,16.870089060662842Q1.0913761,16.857345060662844,1.0782735,16.84356446066284Q1.065171,16.82978586066284,1.0531528,16.815049660662844Q1.0411346,16.800315360662843,1.0302702,16.784709460662842Q1.0194058,16.76910446066284,1.009758,16.752719360662844Q1.0001103,16.73633436066284,0.9917348,16.719263560662842Q0.98335934,16.70219276066284,0.97630447,16.684535460662843Q0.96924967,16.666877260662844,0.96355623,16.64873456066284Q0.95786285,16.630592860662844,0.95356381,16.61207156066284Q0.94926476,16.59354926066284,0.94638485,16.574754260662843Q0.94350493,16.555959260662842,0.94206083,16.536999260662842Q0.94061673,16.518039260662842,0.94061667,16.49902396066284Q0.94061673,16.480009560662843,0.94206083,16.461049560662843Q0.94350493,16.44209056066284,0.94638485,16.423294560662843Q0.94926476,16.404499560662842,0.95356387,16.38597726066284Q0.95786297,16.36745496066284,0.96355629,16.349312260662842Q0.96924973,16.33117056066284,0.97630453,16.31351326066284Q0.98335934,16.29585596066284,0.9917348,16.278785260662843Q1.0001103,16.261714460662844,1.009758,16.245329360662843Q1.0194058,16.228944260662843,1.0302702,16.213339360662843Q1.0411346,16.197734360662842,1.0531527,16.182999160662842Q1.0651709,16.16826396066284,1.0782734,16.15448426066284Q1.0913761,16.14070466066284,1.1054872,16.12795976066284Q1.1195985,16.115214860662842,1.1346369,16.10357906066284Q1.1496754,16.09194326066284,1.1655542,16.081483360662844Q1.181433,16.071023460662843,1.1980603,16.061798560662844Q1.2146876,16.052573660662844,1.2319674,16.044639060662842Q1.2492473,16.03670456066284,1.2670798,16.030105160662842L6.627079,14.046484960662841Q6.7297125,14.008502460662843,6.807096,13.931119460662842Q6.8844795,13.853736360662841,6.9224615,13.751102460662842L8.9060822,8.391102860662842Q8.9126816,8.373270260662842,8.9206161,8.355990360662842Q8.9285507,8.338710560662841,8.9377756,8.322083260662842Q8.9470005,8.305455960662842,8.9574604,8.289577260662842Q8.9679203,8.273698460662843,8.9795561,8.258659960662841Q8.9911919,8.243621560662842,9.0039368,8.229510460662842Q9.0166817,8.215399260662842,9.0304613,8.202296660662842Q9.044241,8.189194060662842,9.0589762,8.177175860662842Q9.0737114,8.165157660662842,9.0893164,8.154293260662842Q9.1049213,8.143428960662842,9.1213064,8.133781160662842Q9.1376915,8.124133360662842,9.1547623,8.115757880662843Q9.171833,8.10738242066284,9.1894913,8.100327610662841Q9.2071486,8.093272800662842,9.2252903,8.087579370662842Q9.243433,8.081886050662842,9.2619553,8.077586950662841Q9.2804775,8.073287960662842,9.2992725,8.070407990662842Q9.3180676,8.067528130662842,9.3370275,8.066083970662842Q9.3559875,8.064639810662841,9.3750019,8.064639810662841Q9.3940163,8.064639810662841,9.4129772,8.066083970662842Q9.4319363,8.067528130662842,9.4507313,8.070407990662842Q9.4695263,8.073287960662842,9.4880486,8.077587010662842Q9.5065708,8.081886050662842,9.5247126,8.087579370662842Q9.5428553,8.093272800662842,9.5605125,8.100327670662843Q9.5781708,8.107382480662842,9.5952406,8.115757940662842Q9.6123114,8.124133460662842,9.6286964,8.133781160662842Q9.6450815,8.143429060662841,9.6606865,8.154293460662842Q9.6762924,8.165157760662842,9.6910267,8.177175860662842Q9.7057619,8.189194060662842,9.7195406,8.202296660662842Q9.7333202,8.215399260662842,9.7460651,8.229510560662842Q9.75881,8.243621660662843,9.7704449,8.25866006066284Q9.7820816,8.273698560662842,9.7925415,8.289577260662842Q9.8030033,8.305456160662843,9.8122272,8.322083360662841Q9.8214512,8.338710760662842,9.8293858,8.355990660662842Q9.8373203,8.373270560662842,9.8439198,8.391103060662841L11.827539,13.751102460662842Z" fill="#3459FF" fill-opacity="1"/></g></g></g></svg>